<svg width="626" height="23" viewBox="0 0 626 23" fill="none" xmlns="http://www.w3.org/2000/svg">
<path d="M8.696 18.072C7.496 18.072 6.384 17.856 5.36 17.424C4.336 16.992 3.44 16.392 2.672 15.624C1.904 14.84 1.304 13.936 0.872 12.912C0.456 11.888 0.248 10.784 0.248 9.6C0.248 8.416 0.464 7.312 0.896 6.288C1.328 5.264 1.928 4.368 2.696 3.6C3.464 2.816 4.36 2.208 5.384 1.776C6.424 1.344 7.544 1.128 8.744 1.128C9.944 1.128 11.056 1.344 12.08 1.776C13.12 2.192 14.016 2.784 14.768 3.552C15.536 4.32 16.128 5.216 16.544 6.24C16.976 7.248 17.192 8.352 17.192 9.552C17.192 10.752 16.976 11.872 16.544 12.912C16.112 13.936 15.504 14.84 14.72 15.624C13.952 16.392 13.056 16.992 12.032 17.424C11.008 17.856 9.896 18.072 8.696 18.072ZM8.672 17.184C9.76 17.184 10.76 16.992 11.672 16.608C12.584 16.208 13.384 15.664 14.072 14.976C14.776 14.288 15.32 13.48 15.704 12.552C16.088 11.608 16.28 10.608 16.28 9.552C16.28 8.48 16.088 7.488 15.704 6.576C15.336 5.664 14.808 4.864 14.12 4.176C13.448 3.488 12.648 2.96 11.72 2.592C10.808 2.208 9.816 2.016 8.744 2.016C7.656 2.016 6.648 2.208 5.72 2.592C4.792 2.976 3.984 3.52 3.296 4.224C2.624 4.912 2.096 5.712 1.712 6.624C1.328 7.536 1.136 8.528 1.136 9.6C1.136 10.656 1.328 11.648 1.712 12.576C2.096 13.488 2.624 14.296 3.296 15C3.984 15.688 4.784 16.224 5.696 16.608C6.624 16.992 7.616 17.184 8.672 17.184ZM8.912 14.592C7.952 14.592 7.096 14.384 6.344 13.968C5.592 13.536 5 12.944 4.568 12.192C4.136 11.44 3.92 10.576 3.92 9.6C3.92 8.624 4.136 7.76 4.568 7.008C5 6.256 5.592 5.672 6.344 5.256C7.096 4.824 7.952 4.608 8.912 4.608C9.728 4.608 10.464 4.776 11.12 5.112C11.792 5.432 12.328 5.88 12.728 6.456L11.696 7.224C11.36 6.76 10.952 6.416 10.472 6.192C9.992 5.968 9.464 5.856 8.888 5.856C8.2 5.856 7.584 6.016 7.04 6.336C6.512 6.64 6.088 7.072 5.768 7.632C5.448 8.192 5.288 8.848 5.288 9.6C5.288 10.352 5.448 11.008 5.768 11.568C6.088 12.128 6.512 12.568 7.04 12.888C7.584 13.192 8.2 13.344 8.888 13.344C9.464 13.344 9.992 13.232 10.472 13.008C10.952 12.784 11.36 12.44 11.696 11.976L12.728 12.72C12.328 13.312 11.792 13.776 11.12 14.112C10.464 14.432 9.728 14.592 8.912 14.592ZM31.1435 18.144C30.1995 18.144 29.3115 17.936 28.4795 17.52C27.6635 17.104 27.0075 16.512 26.5115 15.744L27.5435 14.544C28.0075 15.216 28.5435 15.728 29.1515 16.08C29.7595 16.432 30.4315 16.608 31.1675 16.608C33.2475 16.608 34.2875 15.376 34.2875 12.912V2.736H28.1435V1.2H36.0395V12.84C36.0395 14.616 35.6235 15.944 34.7915 16.824C33.9755 17.704 32.7595 18.144 31.1435 18.144ZM49.8629 18V15.216L49.7909 14.76V10.104C49.7909 9.032 49.4869 8.208 48.8789 7.632C48.2869 7.056 47.3989 6.768 46.2149 6.768C45.3989 6.768 44.6229 6.904 43.8869 7.176C43.1509 7.448 42.5269 7.808 42.0149 8.256L41.2469 6.984C41.8869 6.44 42.6549 6.024 43.5509 5.736C44.4469 5.432 45.3909 5.28 46.3829 5.28C48.0149 5.28 49.2709 5.688 50.1509 6.504C51.0469 7.304 51.4949 8.528 51.4949 10.176V18H49.8629ZM45.5189 18.12C44.5749 18.12 43.7509 17.968 43.0469 17.664C42.3589 17.344 41.8309 16.912 41.4629 16.368C41.0949 15.808 40.9109 15.168 40.9109 14.448C40.9109 13.792 41.0629 13.2 41.3669 12.672C41.6869 12.128 42.1989 11.696 42.9029 11.376C43.6229 11.04 44.5829 10.872 45.7829 10.872H50.1269V12.144H45.8309C44.6149 12.144 43.7669 12.36 43.2869 12.792C42.8229 13.224 42.5909 13.76 42.5909 14.4C42.5909 15.12 42.8709 15.696 43.4309 16.128C43.9909 16.56 44.7749 16.776 45.7829 16.776C46.7429 16.776 47.5669 16.56 48.2549 16.128C48.9589 15.68 49.4709 15.04 49.7909 14.208L50.1749 15.384C49.8549 16.216 49.2949 16.88 48.4949 17.376C47.7109 17.872 46.7189 18.12 45.5189 18.12ZM63.5872 18.12C62.4992 18.12 61.5152 17.872 60.6352 17.376C59.7552 16.864 59.0512 16.136 58.5232 15.192C58.0112 14.232 57.7552 13.064 57.7552 11.688C57.7552 10.312 58.0112 9.152 58.5232 8.208C59.0352 7.248 59.7312 6.52 60.6112 6.024C61.4912 5.528 62.4832 5.28 63.5872 5.28C64.7872 5.28 65.8592 5.552 66.8032 6.096C67.7632 6.624 68.5152 7.376 69.0592 8.352C69.6032 9.312 69.8752 10.424 69.8752 11.688C69.8752 12.968 69.6032 14.088 69.0592 15.048C68.5152 16.008 67.7632 16.76 66.8032 17.304C65.8592 17.848 64.7872 18.12 63.5872 18.12ZM57.0832 22.656V5.4H58.7152V9.192L58.5472 11.712L58.7872 14.256V22.656H57.0832ZM63.4672 16.608C64.3632 16.608 65.1632 16.408 65.8672 16.008C66.5712 15.592 67.1312 15.016 67.5472 14.28C67.9632 13.528 68.1712 12.664 68.1712 11.688C68.1712 10.712 67.9632 9.856 67.5472 9.12C67.1312 8.384 66.5712 7.808 65.8672 7.392C65.1632 6.976 64.3632 6.768 63.4672 6.768C62.5712 6.768 61.7632 6.976 61.0432 7.392C60.3392 7.808 59.7792 8.384 59.3632 9.12C58.9632 9.856 58.7632 10.712 58.7632 11.688C58.7632 12.664 58.9632 13.528 59.3632 14.28C59.7792 15.016 60.3392 15.592 61.0432 16.008C61.7632 16.408 62.5712 16.608 63.4672 16.608ZM82.1345 18V15.216L82.0625 14.76V10.104C82.0625 9.032 81.7585 8.208 81.1505 7.632C80.5585 7.056 79.6705 6.768 78.4865 6.768C77.6705 6.768 76.8945 6.904 76.1585 7.176C75.4225 7.448 74.7985 7.808 74.2865 8.256L73.5185 6.984C74.1585 6.44 74.9265 6.024 75.8225 5.736C76.7185 5.432 77.6625 5.28 78.6545 5.28C80.2865 5.28 81.5425 5.688 82.4225 6.504C83.3185 7.304 83.7665 8.528 83.7665 10.176V18H82.1345ZM77.7905 18.12C76.8465 18.12 76.0225 17.968 75.3185 17.664C74.6305 17.344 74.1025 16.912 73.7345 16.368C73.3665 15.808 73.1825 15.168 73.1825 14.448C73.1825 13.792 73.3345 13.2 73.6385 12.672C73.9585 12.128 74.4705 11.696 75.1745 11.376C75.8945 11.04 76.8545 10.872 78.0545 10.872H82.3985V12.144H78.1025C76.8865 12.144 76.0385 12.36 75.5585 12.792C75.0945 13.224 74.8625 13.76 74.8625 14.4C74.8625 15.12 75.1425 15.696 75.7025 16.128C76.2625 16.56 77.0465 16.776 78.0545 16.776C79.0145 16.776 79.8385 16.56 80.5265 16.128C81.2305 15.68 81.7425 15.04 82.0625 14.208L82.4465 15.384C82.1265 16.216 81.5665 16.88 80.7665 17.376C79.9825 17.872 78.9905 18.12 77.7905 18.12ZM95.7868 5.28C96.8108 5.28 97.7068 5.48 98.4748 5.88C99.2588 6.264 99.8668 6.856 100.299 7.656C100.747 8.456 100.971 9.464 100.971 10.68V18H99.2668V10.848C99.2668 9.52 98.9308 8.52 98.2588 7.848C97.6028 7.16 96.6748 6.816 95.4748 6.816C94.5788 6.816 93.7948 7 93.1228 7.368C92.4668 7.72 91.9548 8.24 91.5868 8.928C91.2348 9.6 91.0588 10.416 91.0588 11.376V18H89.3548V5.4H90.9868V8.856L90.7228 8.208C91.1228 7.296 91.7628 6.584 92.6428 6.072C93.5228 5.544 94.5708 5.28 95.7868 5.28ZM118.767 18.144C117.519 18.144 116.319 17.944 115.167 17.544C114.031 17.128 113.151 16.6 112.527 15.96L113.223 14.592C113.815 15.168 114.607 15.656 115.599 16.056C116.607 16.44 117.663 16.632 118.767 16.632C119.823 16.632 120.679 16.504 121.335 16.248C122.007 15.976 122.495 15.616 122.799 15.168C123.119 14.72 123.279 14.224 123.279 13.68C123.279 13.024 123.087 12.496 122.703 12.096C122.335 11.696 121.847 11.384 121.239 11.16C120.631 10.92 119.959 10.712 119.223 10.536C118.487 10.36 117.751 10.176 117.015 9.984C116.279 9.776 115.599 9.504 114.975 9.168C114.367 8.832 113.871 8.392 113.487 7.848C113.119 7.288 112.935 6.56 112.935 5.664C112.935 4.832 113.151 4.072 113.583 3.384C114.031 2.68 114.711 2.12 115.623 1.704C116.535 1.272 117.703 1.056 119.127 1.056C120.071 1.056 121.007 1.192 121.935 1.464C122.863 1.72 123.663 2.08 124.335 2.544L123.735 3.96C123.015 3.48 122.247 3.128 121.431 2.904C120.631 2.68 119.855 2.568 119.103 2.568C118.095 2.568 117.263 2.704 116.607 2.976C115.951 3.248 115.463 3.616 115.143 4.08C114.839 4.528 114.687 5.04 114.687 5.616C114.687 6.272 114.871 6.8 115.239 7.2C115.623 7.6 116.119 7.912 116.727 8.136C117.351 8.36 118.031 8.56 118.767 8.736C119.503 8.912 120.231 9.104 120.951 9.312C121.687 9.52 122.359 9.792 122.967 10.128C123.591 10.448 124.087 10.88 124.455 11.424C124.839 11.968 125.031 12.68 125.031 13.56C125.031 14.376 124.807 15.136 124.359 15.84C123.911 16.528 123.223 17.088 122.295 17.52C121.383 17.936 120.207 18.144 118.767 18.144ZM133.484 18.12C132.3 18.12 131.388 17.8 130.748 17.16C130.108 16.52 129.788 15.616 129.788 14.448V2.616H131.492V14.352C131.492 15.088 131.676 15.656 132.044 16.056C132.428 16.456 132.972 16.656 133.676 16.656C134.428 16.656 135.052 16.44 135.548 16.008L136.148 17.232C135.812 17.536 135.404 17.76 134.924 17.904C134.46 18.048 133.98 18.12 133.484 18.12ZM127.532 6.816V5.4H135.332V6.816H127.532ZM148.106 18V15.216L148.034 14.76V10.104C148.034 9.032 147.73 8.208 147.122 7.632C146.53 7.056 145.642 6.768 144.458 6.768C143.642 6.768 142.866 6.904 142.13 7.176C141.394 7.448 140.77 7.808 140.258 8.256L139.49 6.984C140.13 6.44 140.898 6.024 141.794 5.736C142.69 5.432 143.634 5.28 144.626 5.28C146.258 5.28 147.514 5.688 148.394 6.504C149.29 7.304 149.738 8.528 149.738 10.176V18H148.106ZM143.762 18.12C142.818 18.12 141.994 17.968 141.29 17.664C140.602 17.344 140.074 16.912 139.706 16.368C139.338 15.808 139.154 15.168 139.154 14.448C139.154 13.792 139.306 13.2 139.61 12.672C139.93 12.128 140.442 11.696 141.146 11.376C141.866 11.04 142.826 10.872 144.026 10.872H148.37V12.144H144.074C142.858 12.144 142.01 12.36 141.53 12.792C141.066 13.224 140.834 13.76 140.834 14.4C140.834 15.12 141.114 15.696 141.674 16.128C142.234 16.56 143.018 16.776 144.026 16.776C144.986 16.776 145.81 16.56 146.498 16.128C147.202 15.68 147.714 15.04 148.034 14.208L148.418 15.384C148.098 16.216 147.538 16.88 146.738 17.376C145.954 17.872 144.962 18.12 143.762 18.12ZM160.703 22.776C159.551 22.776 158.447 22.608 157.391 22.272C156.335 21.936 155.479 21.456 154.823 20.832L155.687 19.536C156.279 20.064 157.007 20.48 157.871 20.784C158.751 21.104 159.679 21.264 160.655 21.264C162.255 21.264 163.431 20.888 164.183 20.136C164.935 19.4 165.311 18.248 165.311 16.68V13.536L165.551 11.376L165.383 9.216V5.4H167.015V16.464C167.015 18.64 166.479 20.232 165.407 21.24C164.351 22.264 162.783 22.776 160.703 22.776ZM160.391 17.52C159.191 17.52 158.111 17.264 157.151 16.752C156.191 16.224 155.431 15.496 154.871 14.568C154.327 13.64 154.055 12.576 154.055 11.376C154.055 10.176 154.327 9.12 154.871 8.208C155.431 7.28 156.191 6.56 157.151 6.048C158.111 5.536 159.191 5.28 160.391 5.28C161.511 5.28 162.519 5.512 163.415 5.976C164.311 6.44 165.023 7.128 165.551 8.04C166.079 8.952 166.343 10.064 166.343 11.376C166.343 12.688 166.079 13.8 165.551 14.712C165.023 15.624 164.311 16.32 163.415 16.8C162.519 17.28 161.511 17.52 160.391 17.52ZM160.559 16.008C161.487 16.008 162.311 15.816 163.031 15.432C163.751 15.032 164.319 14.488 164.735 13.8C165.151 13.096 165.359 12.288 165.359 11.376C165.359 10.464 165.151 9.664 164.735 8.976C164.319 8.288 163.751 7.752 163.031 7.368C162.311 6.968 161.487 6.768 160.559 6.768C159.647 6.768 158.823 6.968 158.087 7.368C157.367 7.752 156.799 8.288 156.383 8.976C155.983 9.664 155.783 10.464 155.783 11.376C155.783 12.288 155.983 13.096 156.383 13.8C156.799 14.488 157.367 15.032 158.087 15.432C158.823 15.816 159.647 16.008 160.559 16.008ZM178.068 18.12C176.756 18.12 175.604 17.848 174.612 17.304C173.62 16.744 172.844 15.984 172.284 15.024C171.724 14.048 171.444 12.936 171.444 11.688C171.444 10.44 171.708 9.336 172.236 8.376C172.78 7.416 173.516 6.664 174.444 6.12C175.388 5.56 176.444 5.28 177.612 5.28C178.796 5.28 179.844 5.552 180.756 6.096C181.684 6.624 182.412 7.376 182.94 8.352C183.468 9.312 183.732 10.424 183.732 11.688C183.732 11.768 183.724 11.856 183.708 11.952C183.708 12.032 183.708 12.12 183.708 12.216H172.74V10.944H182.796L182.124 11.448C182.124 10.536 181.924 9.728 181.524 9.024C181.14 8.304 180.612 7.744 179.94 7.344C179.268 6.944 178.492 6.744 177.612 6.744C176.748 6.744 175.972 6.944 175.284 7.344C174.596 7.744 174.06 8.304 173.676 9.024C173.292 9.744 173.1 10.568 173.1 11.496V11.76C173.1 12.72 173.308 13.568 173.724 14.304C174.156 15.024 174.748 15.592 175.5 16.008C176.268 16.408 177.14 16.608 178.116 16.608C178.884 16.608 179.596 16.472 180.252 16.2C180.924 15.928 181.5 15.512 181.98 14.952L182.94 16.056C182.38 16.728 181.676 17.24 180.828 17.592C179.996 17.944 179.076 18.12 178.068 18.12ZM203.058 18.144C201.794 18.144 200.626 17.936 199.554 17.52C198.482 17.088 197.554 16.488 196.77 15.72C195.986 14.952 195.37 14.048 194.922 13.008C194.49 11.968 194.274 10.832 194.274 9.6C194.274 8.368 194.49 7.232 194.922 6.192C195.37 5.152 195.986 4.248 196.77 3.48C197.57 2.712 198.506 2.12 199.578 1.704C200.65 1.272 201.818 1.056 203.082 1.056C204.298 1.056 205.442 1.264 206.514 1.68C207.586 2.08 208.49 2.688 209.226 3.504L208.098 4.632C207.41 3.928 206.65 3.424 205.818 3.12C204.986 2.8 204.09 2.64 203.13 2.64C202.122 2.64 201.186 2.816 200.322 3.168C199.458 3.504 198.706 3.992 198.066 4.632C197.426 5.256 196.922 5.992 196.554 6.84C196.202 7.672 196.026 8.592 196.026 9.6C196.026 10.608 196.202 11.536 196.554 12.384C196.922 13.216 197.426 13.952 198.066 14.592C198.706 15.216 199.458 15.704 200.322 16.056C201.186 16.392 202.122 16.56 203.13 16.56C204.09 16.56 204.986 16.4 205.818 16.08C206.65 15.76 207.41 15.248 208.098 14.544L209.226 15.672C208.49 16.488 207.586 17.104 206.514 17.52C205.442 17.936 204.29 18.144 203.058 18.144ZM218.185 18.12C216.969 18.12 215.873 17.848 214.897 17.304C213.937 16.744 213.177 15.984 212.617 15.024C212.057 14.048 211.777 12.936 211.777 11.688C211.777 10.424 212.057 9.312 212.617 8.352C213.177 7.392 213.937 6.64 214.897 6.096C215.857 5.552 216.953 5.28 218.185 5.28C219.433 5.28 220.537 5.552 221.497 6.096C222.473 6.64 223.233 7.392 223.777 8.352C224.337 9.312 224.617 10.424 224.617 11.688C224.617 12.936 224.337 14.048 223.777 15.024C223.233 15.984 222.473 16.744 221.497 17.304C220.521 17.848 219.417 18.12 218.185 18.12ZM218.185 16.608C219.097 16.608 219.905 16.408 220.609 16.008C221.313 15.592 221.865 15.016 222.265 14.28C222.681 13.528 222.889 12.664 222.889 11.688C222.889 10.696 222.681 9.832 222.265 9.096C221.865 8.36 221.313 7.792 220.609 7.392C219.905 6.976 219.105 6.768 218.209 6.768C217.313 6.768 216.513 6.976 215.809 7.392C215.105 7.792 214.545 8.36 214.129 9.096C213.713 9.832 213.505 10.696 213.505 11.688C213.505 12.664 213.713 13.528 214.129 14.28C214.545 15.016 215.105 15.592 215.809 16.008C216.513 16.408 217.305 16.608 218.185 16.608ZM228.873 18.12C228.521 18.12 228.217 17.992 227.961 17.736C227.721 17.48 227.601 17.168 227.601 16.8C227.601 16.416 227.721 16.104 227.961 15.864C228.217 15.624 228.521 15.504 228.873 15.504C229.225 15.504 229.521 15.624 229.761 15.864C230.017 16.104 230.145 16.416 230.145 16.8C230.145 17.168 230.017 17.48 229.761 17.736C229.521 17.992 229.225 18.12 228.873 18.12ZM233.719 21.504L234.775 17.064L234.967 18.096C234.599 18.096 234.287 17.976 234.031 17.736C233.791 17.496 233.671 17.184 233.671 16.8C233.671 16.416 233.791 16.104 234.031 15.864C234.287 15.624 234.591 15.504 234.943 15.504C235.311 15.504 235.607 15.632 235.831 15.888C236.071 16.144 236.191 16.448 236.191 16.8C236.191 16.928 236.183 17.056 236.167 17.184C236.151 17.312 236.119 17.456 236.071 17.616C236.023 17.776 235.959 17.968 235.879 18.192L234.871 21.504H233.719ZM248.398 18V1.2H250.174V16.464H259.582V18H248.398ZM266.998 18.12C265.814 18.12 264.902 17.8 264.262 17.16C263.622 16.52 263.302 15.616 263.302 14.448V2.616H265.006V14.352C265.006 15.088 265.19 15.656 265.558 16.056C265.942 16.456 266.486 16.656 267.19 16.656C267.942 16.656 268.566 16.44 269.062 16.008L269.662 17.232C269.326 17.536 268.918 17.76 268.438 17.904C267.974 18.048 267.494 18.12 266.998 18.12ZM261.046 6.816V5.4H268.846V6.816H261.046ZM278.294 18.12C277.094 18.12 276.014 17.848 275.054 17.304C274.11 16.76 273.366 16.008 272.822 15.048C272.278 14.072 272.006 12.952 272.006 11.688C272.006 10.408 272.278 9.288 272.822 8.328C273.366 7.368 274.11 6.624 275.054 6.096C276.014 5.552 277.094 5.28 278.294 5.28C279.398 5.28 280.382 5.528 281.246 6.024C282.126 6.52 282.822 7.248 283.334 8.208C283.862 9.152 284.126 10.312 284.126 11.688C284.126 13.048 283.87 14.208 283.358 15.168C282.846 16.128 282.15 16.864 281.27 17.376C280.406 17.872 279.414 18.12 278.294 18.12ZM278.414 16.608C279.31 16.608 280.11 16.408 280.814 16.008C281.534 15.592 282.094 15.016 282.494 14.28C282.91 13.528 283.118 12.664 283.118 11.688C283.118 10.696 282.91 9.832 282.494 9.096C282.094 8.36 281.534 7.792 280.814 7.392C280.11 6.976 279.31 6.768 278.414 6.768C277.534 6.768 276.742 6.976 276.038 7.392C275.334 7.792 274.774 8.36 274.358 9.096C273.942 9.832 273.734 10.696 273.734 11.688C273.734 12.664 273.942 13.528 274.358 14.28C274.774 15.016 275.334 15.592 276.038 16.008C276.742 16.408 277.534 16.608 278.414 16.608ZM283.166 18V14.208L283.334 11.664L283.094 9.12V0.191999H284.798V18H283.166ZM290.672 18.12C290.32 18.12 290.016 17.992 289.76 17.736C289.52 17.48 289.4 17.168 289.4 16.8C289.4 16.416 289.52 16.104 289.76 15.864C290.016 15.624 290.32 15.504 290.672 15.504C291.024 15.504 291.32 15.624 291.56 15.864C291.816 16.104 291.944 16.416 291.944 16.8C291.944 17.168 291.816 17.48 291.56 17.736C291.32 17.992 291.024 18.12 290.672 18.12ZM302.351 18V16.776L309.335 9.936C309.975 9.312 310.455 8.768 310.775 8.304C311.095 7.824 311.311 7.376 311.423 6.96C311.535 6.544 311.591 6.152 311.591 5.784C311.591 4.808 311.255 4.04 310.583 3.48C309.927 2.92 308.951 2.64 307.655 2.64C306.663 2.64 305.783 2.792 305.015 3.096C304.263 3.4 303.615 3.872 303.071 4.512L301.847 3.456C302.503 2.688 303.343 2.096 304.367 1.68C305.391 1.264 306.535 1.056 307.799 1.056C308.935 1.056 309.919 1.24 310.751 1.608C311.583 1.96 312.223 2.48 312.671 3.168C313.135 3.856 313.367 4.664 313.367 5.592C313.367 6.136 313.287 6.672 313.127 7.2C312.983 7.728 312.711 8.288 312.311 8.88C311.927 9.456 311.359 10.112 310.607 10.848L304.199 17.136L303.719 16.464H314.135V18H302.351ZM323.913 18.144C322.617 18.144 321.465 17.808 320.457 17.136C319.449 16.448 318.657 15.472 318.081 14.208C317.505 12.928 317.217 11.392 317.217 9.6C317.217 7.808 317.505 6.28 318.081 5.016C318.657 3.736 319.449 2.76 320.457 2.088C321.465 1.4 322.617 1.056 323.913 1.056C325.209 1.056 326.361 1.4 327.369 2.088C328.377 2.76 329.169 3.736 329.745 5.016C330.337 6.28 330.633 7.808 330.633 9.6C330.633 11.392 330.337 12.928 329.745 14.208C329.169 15.472 328.377 16.448 327.369 17.136C326.361 17.808 325.209 18.144 323.913 18.144ZM323.913 16.56C324.905 16.56 325.769 16.296 326.505 15.768C327.241 15.224 327.817 14.44 328.233 13.416C328.649 12.376 328.857 11.104 328.857 9.6C328.857 8.096 328.649 6.832 328.233 5.808C327.817 4.768 327.241 3.984 326.505 3.456C325.769 2.912 324.905 2.64 323.913 2.64C322.953 2.64 322.097 2.912 321.345 3.456C320.593 3.984 320.009 4.768 319.593 5.808C319.177 6.832 318.969 8.096 318.969 9.6C318.969 11.104 319.177 12.376 319.593 13.416C320.009 14.44 320.593 15.224 321.345 15.768C322.097 16.296 322.953 16.56 323.913 16.56ZM333.755 18V16.776L340.739 9.936C341.379 9.312 341.859 8.768 342.179 8.304C342.499 7.824 342.715 7.376 342.827 6.96C342.939 6.544 342.995 6.152 342.995 5.784C342.995 4.808 342.659 4.04 341.987 3.48C341.331 2.92 340.355 2.64 339.059 2.64C338.067 2.64 337.187 2.792 336.419 3.096C335.667 3.4 335.019 3.872 334.475 4.512L333.251 3.456C333.907 2.688 334.747 2.096 335.771 1.68C336.795 1.264 337.939 1.056 339.203 1.056C340.339 1.056 341.323 1.24 342.155 1.608C342.987 1.96 343.627 2.48 344.075 3.168C344.539 3.856 344.771 4.664 344.771 5.592C344.771 6.136 344.691 6.672 344.531 7.2C344.387 7.728 344.115 8.288 343.715 8.88C343.331 9.456 342.763 10.112 342.011 10.848L335.603 17.136L335.123 16.464H345.539V18H333.755ZM355.317 18.144C354.021 18.144 352.869 17.808 351.861 17.136C350.853 16.448 350.061 15.472 349.485 14.208C348.909 12.928 348.621 11.392 348.621 9.6C348.621 7.808 348.909 6.28 349.485 5.016C350.061 3.736 350.853 2.76 351.861 2.088C352.869 1.4 354.021 1.056 355.317 1.056C356.613 1.056 357.765 1.4 358.773 2.088C359.781 2.76 360.573 3.736 361.149 5.016C361.741 6.28 362.037 7.808 362.037 9.6C362.037 11.392 361.741 12.928 361.149 14.208C360.573 15.472 359.781 16.448 358.773 17.136C357.765 17.808 356.613 18.144 355.317 18.144ZM355.317 16.56C356.309 16.56 357.173 16.296 357.909 15.768C358.645 15.224 359.221 14.44 359.637 13.416C360.053 12.376 360.261 11.104 360.261 9.6C360.261 8.096 360.053 6.832 359.637 5.808C359.221 4.768 358.645 3.984 357.909 3.456C357.173 2.912 356.309 2.64 355.317 2.64C354.357 2.64 353.501 2.912 352.749 3.456C351.997 3.984 351.413 4.768 350.997 5.808C350.581 6.832 350.373 8.096 350.373 9.6C350.373 11.104 350.581 12.376 350.997 13.416C351.413 14.44 351.997 15.224 352.749 15.768C353.501 16.296 354.357 16.56 355.317 16.56ZM371.513 18L379.193 1.2H380.945L388.625 18H386.753L379.697 2.232H380.417L373.361 18H371.513ZM374.537 13.512L375.065 12.072H384.833L385.361 13.512H374.537ZM392.004 18V0.191999H393.708V18H392.004ZM399.409 18V0.191999H401.113V18H399.409ZM414.416 18V1.2H420.704C422.128 1.2 423.352 1.432 424.376 1.896C425.4 2.344 426.184 3 426.728 3.864C427.288 4.712 427.568 5.744 427.568 6.96C427.568 8.144 427.288 9.168 426.728 10.032C426.184 10.88 425.4 11.536 424.376 12C423.352 12.448 422.128 12.672 420.704 12.672H415.4L416.192 11.856V18H414.416ZM425.888 18L421.568 11.904H423.488L427.832 18H425.888ZM416.192 12L415.4 11.16H420.656C422.336 11.16 423.608 10.792 424.472 10.056C425.352 9.32 425.792 8.288 425.792 6.96C425.792 5.616 425.352 4.576 424.472 3.84C423.608 3.104 422.336 2.736 420.656 2.736H415.4L416.192 1.896V12ZM432.36 18V5.4H434.064V18H432.36ZM433.224 2.616C432.872 2.616 432.576 2.496 432.336 2.256C432.096 2.016 431.976 1.728 431.976 1.392C431.976 1.056 432.096 0.775999 432.336 0.551999C432.576 0.311999 432.872 0.191999 433.224 0.191999C433.576 0.191999 433.872 0.303999 434.112 0.527999C434.352 0.751999 434.472 1.032 434.472 1.368C434.472 1.72 434.352 2.016 434.112 2.256C433.888 2.496 433.592 2.616 433.224 2.616ZM445.141 22.776C443.989 22.776 442.885 22.608 441.829 22.272C440.773 21.936 439.917 21.456 439.261 20.832L440.125 19.536C440.717 20.064 441.445 20.48 442.309 20.784C443.189 21.104 444.117 21.264 445.093 21.264C446.693 21.264 447.869 20.888 448.621 20.136C449.373 19.4 449.749 18.248 449.749 16.68V13.536L449.989 11.376L449.821 9.216V5.4H451.453V16.464C451.453 18.64 450.917 20.232 449.845 21.24C448.789 22.264 447.221 22.776 445.141 22.776ZM444.829 17.52C443.629 17.52 442.549 17.264 441.589 16.752C440.629 16.224 439.869 15.496 439.309 14.568C438.765 13.64 438.493 12.576 438.493 11.376C438.493 10.176 438.765 9.12 439.309 8.208C439.869 7.28 440.629 6.56 441.589 6.048C442.549 5.536 443.629 5.28 444.829 5.28C445.949 5.28 446.957 5.512 447.853 5.976C448.749 6.44 449.461 7.128 449.989 8.04C450.517 8.952 450.781 10.064 450.781 11.376C450.781 12.688 450.517 13.8 449.989 14.712C449.461 15.624 448.749 16.32 447.853 16.8C446.957 17.28 445.949 17.52 444.829 17.52ZM444.997 16.008C445.925 16.008 446.749 15.816 447.469 15.432C448.189 15.032 448.757 14.488 449.173 13.8C449.589 13.096 449.797 12.288 449.797 11.376C449.797 10.464 449.589 9.664 449.173 8.976C448.757 8.288 448.189 7.752 447.469 7.368C446.749 6.968 445.925 6.768 444.997 6.768C444.085 6.768 443.261 6.968 442.525 7.368C441.805 7.752 441.237 8.288 440.821 8.976C440.421 9.664 440.221 10.464 440.221 11.376C440.221 12.288 440.421 13.096 440.821 13.8C441.237 14.488 441.805 15.032 442.525 15.432C443.261 15.816 444.085 16.008 444.997 16.008ZM463.587 5.28C464.611 5.28 465.507 5.48 466.275 5.88C467.059 6.264 467.667 6.856 468.099 7.656C468.547 8.456 468.771 9.464 468.771 10.68V18H467.067V10.848C467.067 9.52 466.731 8.52 466.059 7.848C465.403 7.16 464.475 6.816 463.275 6.816C462.379 6.816 461.595 7 460.923 7.368C460.267 7.72 459.755 8.24 459.387 8.928C459.035 9.6 458.859 10.416 458.859 11.376V18H457.155V0.191999H458.859V8.856L458.523 8.208C458.923 7.296 459.563 6.584 460.443 6.072C461.323 5.544 462.371 5.28 463.587 5.28ZM478.317 18.12C477.133 18.12 476.221 17.8 475.581 17.16C474.941 16.52 474.621 15.616 474.621 14.448V2.616H476.325V14.352C476.325 15.088 476.509 15.656 476.877 16.056C477.261 16.456 477.805 16.656 478.509 16.656C479.261 16.656 479.885 16.44 480.381 16.008L480.981 17.232C480.645 17.536 480.237 17.76 479.757 17.904C479.293 18.048 478.813 18.12 478.317 18.12ZM472.365 6.816V5.4H480.165V6.816H472.365ZM488.428 18.12C487.388 18.12 486.404 17.976 485.476 17.688C484.548 17.384 483.82 17.008 483.292 16.56L484.06 15.216C484.572 15.6 485.228 15.936 486.028 16.224C486.828 16.496 487.668 16.632 488.548 16.632C489.748 16.632 490.612 16.448 491.14 16.08C491.668 15.696 491.932 15.192 491.932 14.568C491.932 14.104 491.78 13.744 491.476 13.488C491.188 13.216 490.804 13.016 490.324 12.888C489.844 12.744 489.308 12.624 488.716 12.528C488.124 12.432 487.532 12.32 486.94 12.192C486.364 12.064 485.836 11.88 485.356 11.64C484.876 11.384 484.484 11.04 484.18 10.608C483.892 10.176 483.748 9.6 483.748 8.88C483.748 8.192 483.94 7.576 484.324 7.032C484.708 6.488 485.268 6.064 486.004 5.76C486.756 5.44 487.668 5.28 488.74 5.28C489.556 5.28 490.372 5.392 491.188 5.616C492.004 5.824 492.676 6.104 493.204 6.456L492.46 7.824C491.9 7.44 491.3 7.168 490.66 7.008C490.02 6.832 489.38 6.744 488.74 6.744C487.604 6.744 486.764 6.944 486.22 7.344C485.692 7.728 485.428 8.224 485.428 8.832C485.428 9.312 485.572 9.688 485.86 9.96C486.164 10.232 486.556 10.448 487.036 10.608C487.532 10.752 488.068 10.872 488.644 10.968C489.236 11.064 489.82 11.184 490.396 11.328C490.988 11.456 491.524 11.64 492.004 11.88C492.5 12.104 492.892 12.432 493.18 12.864C493.484 13.28 493.636 13.832 493.636 14.52C493.636 15.256 493.428 15.896 493.012 16.44C492.612 16.968 492.02 17.384 491.236 17.688C490.468 17.976 489.532 18.12 488.428 18.12ZM505.323 18V1.2H511.611C513.035 1.2 514.259 1.432 515.283 1.896C516.307 2.344 517.091 3 517.635 3.864C518.195 4.712 518.475 5.744 518.475 6.96C518.475 8.144 518.195 9.168 517.635 10.032C517.091 10.88 516.307 11.536 515.283 12C514.259 12.448 513.035 12.672 511.611 12.672H506.307L507.099 11.856V18H505.323ZM516.795 18L512.475 11.904H514.395L518.739 18H516.795ZM507.099 12L506.307 11.16H511.563C513.243 11.16 514.515 10.792 515.379 10.056C516.259 9.32 516.699 8.288 516.699 6.96C516.699 5.616 516.259 4.576 515.379 3.84C514.515 3.104 513.243 2.736 511.563 2.736H506.307L507.099 1.896V12ZM528.619 18.12C527.307 18.12 526.155 17.848 525.163 17.304C524.171 16.744 523.395 15.984 522.835 15.024C522.275 14.048 521.995 12.936 521.995 11.688C521.995 10.44 522.259 9.336 522.787 8.376C523.331 7.416 524.067 6.664 524.995 6.12C525.939 5.56 526.995 5.28 528.163 5.28C529.347 5.28 530.395 5.552 531.307 6.096C532.235 6.624 532.963 7.376 533.491 8.352C534.019 9.312 534.283 10.424 534.283 11.688C534.283 11.768 534.275 11.856 534.259 11.952C534.259 12.032 534.259 12.12 534.259 12.216H523.291V10.944H533.347L532.675 11.448C532.675 10.536 532.475 9.728 532.075 9.024C531.691 8.304 531.163 7.744 530.491 7.344C529.819 6.944 529.043 6.744 528.163 6.744C527.299 6.744 526.523 6.944 525.835 7.344C525.147 7.744 524.611 8.304 524.227 9.024C523.843 9.744 523.651 10.568 523.651 11.496V11.76C523.651 12.72 523.859 13.568 524.275 14.304C524.707 15.024 525.299 15.592 526.051 16.008C526.819 16.408 527.691 16.608 528.667 16.608C529.435 16.608 530.147 16.472 530.803 16.2C531.475 15.928 532.051 15.512 532.531 14.952L533.491 16.056C532.931 16.728 532.227 17.24 531.379 17.592C530.547 17.944 529.627 18.12 528.619 18.12ZM542.096 18.12C541.056 18.12 540.072 17.976 539.144 17.688C538.216 17.384 537.488 17.008 536.96 16.56L537.728 15.216C538.24 15.6 538.896 15.936 539.696 16.224C540.496 16.496 541.336 16.632 542.216 16.632C543.416 16.632 544.28 16.448 544.808 16.08C545.336 15.696 545.6 15.192 545.6 14.568C545.6 14.104 545.448 13.744 545.144 13.488C544.856 13.216 544.472 13.016 543.992 12.888C543.512 12.744 542.976 12.624 542.384 12.528C541.792 12.432 541.2 12.32 540.608 12.192C540.032 12.064 539.504 11.88 539.024 11.64C538.544 11.384 538.152 11.04 537.848 10.608C537.56 10.176 537.416 9.6 537.416 8.88C537.416 8.192 537.608 7.576 537.992 7.032C538.376 6.488 538.936 6.064 539.672 5.76C540.424 5.44 541.336 5.28 542.408 5.28C543.224 5.28 544.04 5.392 544.856 5.616C545.672 5.824 546.344 6.104 546.872 6.456L546.128 7.824C545.568 7.44 544.968 7.168 544.328 7.008C543.688 6.832 543.048 6.744 542.408 6.744C541.272 6.744 540.432 6.944 539.888 7.344C539.36 7.728 539.096 8.224 539.096 8.832C539.096 9.312 539.24 9.688 539.528 9.96C539.832 10.232 540.224 10.448 540.704 10.608C541.2 10.752 541.736 10.872 542.312 10.968C542.904 11.064 543.488 11.184 544.064 11.328C544.656 11.456 545.192 11.64 545.672 11.88C546.168 12.104 546.56 12.432 546.848 12.864C547.152 13.28 547.304 13.832 547.304 14.52C547.304 15.256 547.096 15.896 546.68 16.44C546.28 16.968 545.688 17.384 544.904 17.688C544.136 17.976 543.2 18.12 542.096 18.12ZM556.742 18.12C555.43 18.12 554.278 17.848 553.286 17.304C552.294 16.744 551.518 15.984 550.958 15.024C550.398 14.048 550.118 12.936 550.118 11.688C550.118 10.44 550.382 9.336 550.91 8.376C551.454 7.416 552.19 6.664 553.118 6.12C554.062 5.56 555.118 5.28 556.286 5.28C557.47 5.28 558.518 5.552 559.43 6.096C560.358 6.624 561.086 7.376 561.614 8.352C562.142 9.312 562.406 10.424 562.406 11.688C562.406 11.768 562.398 11.856 562.382 11.952C562.382 12.032 562.382 12.12 562.382 12.216H551.414V10.944H561.47L560.798 11.448C560.798 10.536 560.598 9.728 560.198 9.024C559.814 8.304 559.286 7.744 558.614 7.344C557.942 6.944 557.166 6.744 556.286 6.744C555.422 6.744 554.646 6.944 553.958 7.344C553.27 7.744 552.734 8.304 552.35 9.024C551.966 9.744 551.774 10.568 551.774 11.496V11.76C551.774 12.72 551.982 13.568 552.398 14.304C552.83 15.024 553.422 15.592 554.174 16.008C554.942 16.408 555.814 16.608 556.79 16.608C557.558 16.608 558.27 16.472 558.926 16.2C559.598 15.928 560.174 15.512 560.654 14.952L561.614 16.056C561.054 16.728 560.35 17.24 559.502 17.592C558.67 17.944 557.75 18.12 556.742 18.12ZM566.835 18V5.4H568.467V8.832L568.299 8.232C568.651 7.272 569.243 6.544 570.075 6.048C570.907 5.536 571.939 5.28 573.171 5.28V6.936C573.107 6.936 573.043 6.936 572.979 6.936C572.915 6.92 572.851 6.912 572.787 6.912C571.459 6.912 570.419 7.32 569.667 8.136C568.915 8.936 568.539 10.08 568.539 11.568V18H566.835ZM581.019 18L575.427 5.4H577.203L582.339 17.088H581.499L586.707 5.4H588.387L582.771 18H581.019ZM596.747 18.12C595.435 18.12 594.283 17.848 593.291 17.304C592.299 16.744 591.523 15.984 590.963 15.024C590.403 14.048 590.123 12.936 590.123 11.688C590.123 10.44 590.387 9.336 590.915 8.376C591.459 7.416 592.195 6.664 593.123 6.12C594.067 5.56 595.123 5.28 596.291 5.28C597.475 5.28 598.523 5.552 599.435 6.096C600.363 6.624 601.091 7.376 601.619 8.352C602.147 9.312 602.411 10.424 602.411 11.688C602.411 11.768 602.403 11.856 602.387 11.952C602.387 12.032 602.387 12.12 602.387 12.216H591.419V10.944H601.475L600.803 11.448C600.803 10.536 600.603 9.728 600.203 9.024C599.819 8.304 599.291 7.744 598.619 7.344C597.947 6.944 597.171 6.744 596.291 6.744C595.427 6.744 594.651 6.944 593.963 7.344C593.275 7.744 592.739 8.304 592.355 9.024C591.971 9.744 591.779 10.568 591.779 11.496V11.76C591.779 12.72 591.987 13.568 592.403 14.304C592.835 15.024 593.427 15.592 594.179 16.008C594.947 16.408 595.819 16.608 596.795 16.608C597.563 16.608 598.275 16.472 598.931 16.2C599.603 15.928 600.179 15.512 600.659 14.952L601.619 16.056C601.059 16.728 600.355 17.24 599.507 17.592C598.675 17.944 597.755 18.12 596.747 18.12ZM611.856 18.12C610.656 18.12 609.576 17.848 608.616 17.304C607.672 16.76 606.928 16.008 606.384 15.048C605.84 14.072 605.568 12.952 605.568 11.688C605.568 10.408 605.84 9.288 606.384 8.328C606.928 7.368 607.672 6.624 608.616 6.096C609.576 5.552 610.656 5.28 611.856 5.28C612.96 5.28 613.944 5.528 614.808 6.024C615.688 6.52 616.384 7.248 616.896 8.208C617.424 9.152 617.688 10.312 617.688 11.688C617.688 13.048 617.432 14.208 616.92 15.168C616.408 16.128 615.712 16.864 614.832 17.376C613.968 17.872 612.976 18.12 611.856 18.12ZM611.976 16.608C612.872 16.608 613.672 16.408 614.376 16.008C615.096 15.592 615.656 15.016 616.056 14.28C616.472 13.528 616.68 12.664 616.68 11.688C616.68 10.696 616.472 9.832 616.056 9.096C615.656 8.36 615.096 7.792 614.376 7.392C613.672 6.976 612.872 6.768 611.976 6.768C611.096 6.768 610.304 6.976 609.6 7.392C608.896 7.792 608.336 8.36 607.92 9.096C607.504 9.832 607.296 10.696 607.296 11.688C607.296 12.664 607.504 13.528 607.92 14.28C608.336 15.016 608.896 15.592 609.6 16.008C610.304 16.408 611.096 16.608 611.976 16.608ZM616.728 18V14.208L616.896 11.664L616.656 9.12V0.191999H618.36V18H616.728ZM624.233 18.12C623.881 18.12 623.577 17.992 623.321 17.736C623.081 17.48 622.961 17.168 622.961 16.8C622.961 16.416 623.081 16.104 623.321 15.864C623.577 15.624 623.881 15.504 624.233 15.504C624.585 15.504 624.881 15.624 625.121 15.864C625.377 16.104 625.505 16.416 625.505 16.8C625.505 17.168 625.377 17.48 625.121 17.736C624.881 17.992 624.585 18.12 624.233 18.12Z" fill="white"/>
</svg>
