<svg width="890" height="50" viewBox="0 0 890 50" fill="none" xmlns="http://www.w3.org/2000/svg">
<path fill-rule="evenodd" clip-rule="evenodd" d="M19.0142 24.9945C27.4123 33.3902 29.3174 23.6773 34.6645 29.0207C39.8195 34.1742 42.7824 35.2067 36.251 41.7363C35.4329 42.3937 30.235 50.3037 11.9676 32.0414C-6.30206 13.7768 1.60334 8.57357 2.26099 7.75568C8.80814 1.2081 9.82287 4.18817 14.9779 9.34174C20.325 14.6874 10.6161 16.5988 19.0142 24.9945Z" fill="#002F8C"/>
<path d="M300.202 25.912C302.683 26.1978 305.011 25.44 306.789 23.7687C308.595 22.0717 309.407 20.2074 309.407 17.7594C309.407 15.2808 308.587 13.4245 306.727 11.6943C305.905 10.9293 304.825 10.3015 303.647 9.90419C302.684 9.57884 300.55 9.49784 299.405 9.74309C298.13 10.0158 296.614 10.8073 295.654 11.7001C293.858 13.3705 292.999 15.3339 292.999 17.7594C292.999 19.2133 293.211 20.1241 293.86 21.4521C294.333 22.4182 294.51 22.659 295.393 23.5369C296.162 24.3015 296.583 24.6282 297.226 24.9585C298.286 25.5021 299.209 25.7977 300.202 25.9125V25.912ZM300.668 45.8083C300.494 45.7021 299.711 44.9416 298.929 44.1181C292.938 37.8091 288.755 31.6725 286.485 25.8585C285.802 24.1093 285.549 23.226 285.281 21.66C284.461 16.8585 285.443 12.1677 288.104 8.17799C289.116 6.65924 291.171 4.60049 292.638 3.63389C297.989 0.108139 304.437 0.122989 309.812 3.67304C311.207 4.59464 313.282 6.68894 314.27 8.17304C316.078 10.8906 317.042 13.6797 317.335 17.0448C317.573 19.7907 317.162 22.4718 316.047 25.4571C313.875 31.263 309.928 37.0581 303.129 44.4219C301.611 46.0657 301.342 46.2174 300.668 45.8079V45.8083Z" fill="#002F8C"/>
<path d="M59.93 33.18C58.31 33.18 56.87 32.76 55.61 31.92C54.35 31.06 53.36 29.84 52.64 28.26C51.92 26.66 51.56 24.74 51.56 22.5C51.56 20.26 51.92 18.35 52.64 16.77C53.36 15.17 54.35 13.95 55.61 13.11C56.87 12.25 58.31 11.82 59.93 11.82C61.55 11.82 62.99 12.25 64.25 13.11C65.51 13.95 66.5 15.17 67.22 16.77C67.96 18.35 68.33 20.26 68.33 22.5C68.33 24.74 67.96 26.66 67.22 28.26C66.5 29.84 65.51 31.06 64.25 31.92C62.99 32.76 61.55 33.18 59.93 33.18ZM59.93 31.2C61.17 31.2 62.25 30.87 63.17 30.21C64.09 29.53 64.81 28.55 65.33 27.27C65.85 25.97 66.11 24.38 66.11 22.5C66.11 20.62 65.85 19.04 65.33 17.76C64.81 16.46 64.09 15.48 63.17 14.82C62.25 14.14 61.17 13.8 59.93 13.8C58.73 13.8 57.66 14.14 56.72 14.82C55.78 15.48 55.05 16.46 54.53 17.76C54.01 19.04 53.75 20.62 53.75 22.5C53.75 24.38 54.01 25.97 54.53 27.27C55.05 28.55 55.78 29.53 56.72 30.21C57.66 30.87 58.73 31.2 59.93 31.2ZM71.0333 33V31.47L79.7633 22.92C80.5633 22.14 81.1633 21.46 81.5633 20.88C81.9633 20.28 82.2333 19.72 82.3733 19.2C82.5133 18.68 82.5833 18.19 82.5833 17.73C82.5833 16.51 82.1633 15.55 81.3233 14.85C80.5033 14.15 79.2833 13.8 77.6633 13.8C76.4233 13.8 75.3233 13.99 74.3633 14.37C73.4233 14.75 72.6133 15.34 71.9333 16.14L70.4033 14.82C71.2233 13.86 72.2733 13.12 73.5533 12.6C74.8333 12.08 76.2633 11.82 77.8433 11.82C79.2633 11.82 80.4933 12.05 81.5333 12.51C82.5733 12.95 83.3733 13.6 83.9333 14.46C84.5133 15.32 84.8033 16.33 84.8033 17.49C84.8033 18.17 84.7033 18.84 84.5033 19.5C84.3233 20.16 83.9833 20.86 83.4833 21.6C83.0033 22.32 82.2933 23.14 81.3533 24.06L73.3433 31.92L72.7433 31.08H85.7633V33H71.0333ZM92.1055 33L101.165 12.96L101.825 13.92H88.8355L89.9455 12.87V17.85H87.8155V12H103.235V13.53L94.4455 33H92.1055ZM113.866 33.18C112.246 33.18 110.806 32.76 109.546 31.92C108.286 31.06 107.296 29.84 106.576 28.26C105.856 26.66 105.496 24.74 105.496 22.5C105.496 20.26 105.856 18.35 106.576 16.77C107.296 15.17 108.286 13.95 109.546 13.11C110.806 12.25 112.246 11.82 113.866 11.82C115.486 11.82 116.926 12.25 118.186 13.11C119.446 13.95 120.436 15.17 121.156 16.77C121.896 18.35 122.266 20.26 122.266 22.5C122.266 24.74 121.896 26.66 121.156 28.26C120.436 29.84 119.446 31.06 118.186 31.92C116.926 32.76 115.486 33.18 113.866 33.18ZM113.866 31.2C115.106 31.2 116.186 30.87 117.106 30.21C118.026 29.53 118.746 28.55 119.266 27.27C119.786 25.97 120.046 24.38 120.046 22.5C120.046 20.62 119.786 19.04 119.266 17.76C118.746 16.46 118.026 15.48 117.106 14.82C116.186 14.14 115.106 13.8 113.866 13.8C112.666 13.8 111.596 14.14 110.656 14.82C109.716 15.48 108.986 16.46 108.466 17.76C107.946 19.04 107.686 20.62 107.686 22.5C107.686 24.38 107.946 25.97 108.466 27.27C108.986 28.55 109.716 29.53 110.656 30.21C111.596 30.87 112.666 31.2 113.866 31.2ZM125.833 25.8V23.94H133.693V25.8H125.833ZM140.445 33L149.505 12.96L150.165 13.92H137.175L138.285 12.87V17.85H136.155V12H151.575V13.53L142.785 33H140.445ZM162.445 33.18C160.585 33.18 159.015 32.77 157.735 31.95C156.455 31.11 155.485 29.91 154.825 28.35C154.165 26.77 153.835 24.88 153.835 22.68C153.835 20.3 154.235 18.31 155.035 16.71C155.855 15.09 156.985 13.87 158.425 13.05C159.865 12.23 161.535 11.82 163.435 11.82C164.375 11.82 165.275 11.91 166.135 12.09C166.995 12.27 167.755 12.56 168.415 12.96L167.545 14.7C167.005 14.34 166.385 14.09 165.685 13.95C164.985 13.79 164.245 13.71 163.465 13.71C161.205 13.71 159.395 14.43 158.035 15.87C156.695 17.31 156.025 19.46 156.025 22.32C156.025 22.76 156.045 23.31 156.085 23.97C156.145 24.61 156.265 25.25 156.445 25.89L155.695 25.32C155.915 24.28 156.345 23.4 156.985 22.68C157.625 21.94 158.425 21.38 159.385 21C160.345 20.62 161.395 20.43 162.535 20.43C163.935 20.43 165.165 20.69 166.225 21.21C167.285 21.73 168.115 22.46 168.715 23.4C169.315 24.34 169.615 25.45 169.615 26.73C169.615 28.03 169.305 29.17 168.685 30.15C168.065 31.11 167.205 31.86 166.105 32.4C165.025 32.92 163.805 33.18 162.445 33.18ZM162.355 31.35C163.355 31.35 164.235 31.17 164.995 30.81C165.775 30.43 166.385 29.9 166.825 29.22C167.265 28.52 167.485 27.71 167.485 26.79C167.485 25.41 167.005 24.31 166.045 23.49C165.105 22.67 163.825 22.26 162.205 22.26C161.125 22.26 160.185 22.46 159.385 22.86C158.585 23.26 157.955 23.81 157.495 24.51C157.035 25.19 156.805 25.97 156.805 26.85C156.805 27.61 157.015 28.34 157.435 29.04C157.855 29.72 158.475 30.28 159.295 30.72C160.135 31.14 161.155 31.35 162.355 31.35ZM172.503 25.8V23.94H180.363V25.8H172.503ZM186.88 33V12.9L187.84 13.92H181.93V12H189.04V33H186.88ZM200.33 33.18C198.81 33.18 197.37 32.94 196.01 32.46C194.67 31.96 193.59 31.3 192.77 30.48L193.82 28.77C194.5 29.47 195.41 30.05 196.55 30.51C197.71 30.97 198.97 31.2 200.33 31.2C202.07 31.2 203.4 30.82 204.32 30.06C205.26 29.3 205.73 28.28 205.73 27C205.73 25.72 205.27 24.7 204.35 23.94C203.45 23.18 202.02 22.8 200.06 22.8H198.56V21.21L205.04 13.08L205.34 13.92H193.64V12H207.14V13.53L200.66 21.66L199.61 20.97H200.42C202.94 20.97 204.82 21.53 206.06 22.65C207.32 23.77 207.95 25.21 207.95 26.97C207.95 28.15 207.67 29.21 207.11 30.15C206.55 31.09 205.7 31.83 204.56 32.37C203.44 32.91 202.03 33.18 200.33 33.18ZM219.364 33.18C217.744 33.18 216.304 32.76 215.044 31.92C213.784 31.06 212.794 29.84 212.074 28.26C211.354 26.66 210.994 24.74 210.994 22.5C210.994 20.26 211.354 18.35 212.074 16.77C212.794 15.17 213.784 13.95 215.044 13.11C216.304 12.25 217.744 11.82 219.364 11.82C220.984 11.82 222.424 12.25 223.684 13.11C224.944 13.95 225.934 15.17 226.654 16.77C227.394 18.35 227.764 20.26 227.764 22.5C227.764 24.74 227.394 26.66 226.654 28.26C225.934 29.84 224.944 31.06 223.684 31.92C222.424 32.76 220.984 33.18 219.364 33.18ZM219.364 31.2C220.604 31.2 221.684 30.87 222.604 30.21C223.524 29.53 224.244 28.55 224.764 27.27C225.284 25.97 225.544 24.38 225.544 22.5C225.544 20.62 225.284 19.04 224.764 17.76C224.244 16.46 223.524 15.48 222.604 14.82C221.684 14.14 220.604 13.8 219.364 13.8C218.164 13.8 217.094 14.14 216.154 14.82C215.214 15.48 214.484 16.46 213.964 17.76C213.444 19.04 213.184 20.62 213.184 22.5C213.184 24.38 213.444 25.97 213.964 27.27C214.484 28.55 215.214 29.53 216.154 30.21C217.094 30.87 218.164 31.2 219.364 31.2ZM230.497 27.48V25.92L241.627 12H244.027L232.987 25.92L231.817 25.56H248.707V27.48H230.497ZM242.347 33V27.48L242.407 25.56V20.7H244.507V33H242.347Z" fill="#002F8C"/>
<path d="M356.456 18.585V20.448H367.553V18.585H356.456ZM356.834 24.12V26.01H367.094V24.12H356.834ZM355.835 29.925V31.842H368.174V29.925H355.835ZM356.807 14.076C357.644 15.48 358.4 17.343 358.643 18.585L360.398 17.91C360.128 16.695 359.318 14.886 358.4 13.536L356.807 14.076ZM365.096 13.293C364.691 14.724 363.8 16.749 363.125 18.018L364.799 18.477C365.501 17.262 366.311 15.399 367.067 13.779L365.096 13.293ZM360.911 19.476V38.187H362.882V19.476H360.911ZM343.307 19.152V20.907H356.159V19.152H343.307ZM344.711 14.697V16.452H352.676V23.58H344.549V25.335H354.566V14.697H344.711ZM346.142 28.143V38.187H348.005V28.143H346.142ZM346.898 28.143V29.925H352.946V34.92H346.898V36.729H354.944V28.143H346.898ZM348.059 15.318C347.6 22.527 346.493 28.359 342.875 31.761C343.307 32.139 344.009 32.949 344.252 33.354C348.113 29.412 349.436 23.337 350.003 15.426L348.059 15.318ZM375.788 23.418V25.065H392.771V23.418H375.788ZM375.788 19.098V20.772H392.771V19.098H375.788ZM374.708 27.738V29.52H393.797V27.738H374.708ZM393.365 27.738V28.062C393.014 33.489 392.663 35.541 392.096 36.108C391.88 36.324 391.637 36.378 391.151 36.378C390.665 36.378 389.396 36.378 388.073 36.216C388.37 36.756 388.586 37.566 388.613 38.106C389.99 38.187 391.367 38.187 392.069 38.133C392.825 38.079 393.338 37.89 393.824 37.377C394.58 36.54 394.958 34.326 395.363 28.629C395.39 28.332 395.417 27.738 395.417 27.738H393.365ZM382.781 31.437C383.51 33.003 384.185 35.055 384.401 36.297L386.075 35.838C385.859 34.596 385.157 32.571 384.401 31.086L382.781 31.437ZM387.155 31.032C388.073 32.166 389.072 33.759 389.477 34.785L391.043 34.11C390.611 33.084 389.612 31.545 388.64 30.438L387.155 31.032ZM378.137 31.626C378.569 33.354 378.947 35.568 378.947 37.026L380.81 36.729C380.729 35.244 380.351 33.057 379.865 31.329L378.137 31.626ZM374.249 30.681C373.817 33.03 372.899 35.46 371.198 36.891L372.845 37.944C374.681 36.351 375.518 33.705 376.031 31.167L374.249 30.681ZM382.997 15.615V28.467H384.995V15.615H382.997ZM374.708 14.643V28.575H376.679V16.425H393.716V14.643H374.708ZM407.891 19.449H418.745V21.609H407.891V19.449ZM407.891 23.04H418.745V25.227H407.891V23.04ZM407.891 15.858H418.745V17.991H407.891V15.858ZM405.974 14.373V26.712H420.743V14.373H405.974ZM415.775 32.679C417.989 34.245 420.77 36.486 422.12 37.863L423.902 36.594C422.444 35.19 419.609 33.057 417.449 31.599L415.775 32.679ZM410.726 29.493V38.16H412.859V29.493H410.726ZM402.41 28.737V30.546H423.875V28.737H402.41ZM401.195 15.75V31.302H403.22V15.75H401.195ZM405.704 31.653C404.435 33.327 401.87 35.271 399.629 36.486C400.115 36.81 400.844 37.431 401.249 37.836C403.517 36.513 406.136 34.407 407.81 32.436L405.704 31.653ZM434.243 21.528V23.418H452.279V21.528H434.243ZM436.106 15.183V17.1H448.31V31.221H450.281V15.183H436.106ZM435.728 27.9V29.817H449.444V27.9H435.728ZM440.912 15.831V24.768C440.912 28.791 440.561 33.867 434.162 36.675C434.621 37.08 435.242 37.809 435.512 38.241C442.235 34.974 442.91 29.412 442.91 24.741V15.831H440.912ZM433.838 13.401C432.272 17.505 429.626 21.528 426.899 24.093C427.277 24.579 427.844 25.632 428.033 26.091C431.03 23.094 433.919 18.558 435.755 13.995L433.838 13.401ZM431.03 20.34V38.133H432.974V18.45L432.947 18.423L431.03 20.34ZM461.054 21.879V27.387L462.89 27.252V21.879H461.054ZM455.897 17.721V19.152H468.155V17.721H455.897ZM457.004 14.886V16.263H467.021V14.886H457.004ZM461.054 13.32V18.612H462.89V13.32H461.054ZM455.735 26.901L455.843 28.467C458.921 28.224 463.295 27.9 467.534 27.549V26.118C463.16 26.442 458.678 26.766 455.735 26.901ZM459.38 18.693C459.137 20.394 457.733 21.258 455.762 21.663C456.086 21.987 456.464 22.635 456.599 22.959C458.975 22.311 460.649 21.015 460.946 18.747L459.38 18.693ZM462.917 18.369V20.367C462.917 21.771 463.268 22.095 464.78 22.095C465.05 22.095 466.238 22.095 466.535 22.095C467.588 22.095 468.02 21.717 468.128 20.367C467.696 20.313 467.102 20.124 466.778 19.908C466.724 20.745 466.67 20.88 466.265 20.88C466.022 20.88 465.185 20.88 464.969 20.88C464.564 20.88 464.51 20.826 464.51 20.367V18.369H462.917ZM456.923 23.391V24.741H467.129V23.391H456.923ZM457.463 30.168V31.788H476.471V30.168H457.463ZM475.958 30.168V30.465C475.607 34.164 475.202 35.73 474.662 36.189C474.419 36.378 474.149 36.405 473.609 36.405C473.069 36.405 471.503 36.378 469.964 36.243C470.315 36.756 470.531 37.539 470.585 38.079C472.124 38.16 473.636 38.187 474.392 38.133C475.256 38.079 475.796 37.944 476.336 37.458C477.065 36.756 477.524 35.028 477.929 31.059C477.983 30.762 478.037 30.168 478.037 30.168H475.958ZM466.751 28.521C466.076 33.057 464.294 35.514 455.978 36.567C456.329 36.972 456.788 37.755 456.923 38.241C465.833 36.945 468.02 33.948 468.83 28.521H466.751ZM468.29 21.258C470.612 22.419 473.366 24.255 474.689 25.605L475.634 24.12C474.284 22.797 471.503 21.069 469.208 19.989L468.29 21.258ZM468.776 16.56V18.261H476.93V16.56H468.776ZM476.147 16.56C476.201 23.742 476.201 28.818 478.928 28.818C480.305 28.818 480.629 27.711 480.791 24.795C480.44 24.552 479.927 24.12 479.576 23.688C479.549 25.632 479.414 27.063 479.063 27.063C477.983 27.063 477.983 22.581 478.01 16.56H476.147ZM471.854 13.32C471.719 20.232 471.395 24.552 467.561 26.982C467.939 27.279 468.506 27.9 468.749 28.305C472.961 25.551 473.474 20.799 473.609 13.32H471.854ZM484.463 17.964V35.055H486.002V17.964H484.463ZM491.132 17.964V34.164H492.644V17.964H491.132ZM487.703 13.86V31.869H489.35V13.86H487.703ZM485.219 30.816V32.517H491.726V30.816H485.219ZM495.695 27.063V28.575H500.447V31.896H495.695V33.435H502.148V27.063H495.695ZM494.831 27.063V34.947H496.478V27.063H494.831ZM493.778 15.723V17.397H507.683V15.723H493.778ZM492.941 23.31V25.038H508.52V23.31H492.941ZM504.659 24.525V35.811C504.659 36.216 504.524 36.324 504.092 36.351C503.633 36.378 502.094 36.378 500.366 36.324C500.663 36.837 500.987 37.62 501.068 38.16C503.282 38.16 504.659 38.133 505.496 37.836C506.333 37.539 506.576 36.972 506.576 35.865V24.525H504.659ZM499.988 13.347C499.745 18.315 498.881 20.502 493.373 21.663C493.724 21.987 494.21 22.689 494.372 23.121C500.447 21.771 501.581 19.017 501.851 13.347H499.988ZM499.34 19.125C501.716 20.367 504.821 22.149 506.414 23.256L507.71 21.825C506.036 20.745 502.877 19.044 500.582 17.883L499.34 19.125ZM522.965 13.212V18.261H525.098V13.212H522.965ZM522.992 18.909V38.241H525.071V18.909H522.992ZM511.976 17.073V19.044H536.303V17.073H511.976ZM514.757 22.743V34.812H516.782V24.714H532.496V22.743H514.757ZM531.713 22.743V32.247C531.713 32.625 531.578 32.733 531.092 32.76C530.633 32.787 528.986 32.787 527.15 32.733C527.447 33.3 527.771 34.11 527.852 34.731C530.174 34.731 531.686 34.704 532.631 34.38C533.522 34.029 533.792 33.408 533.792 32.247V22.743H531.713ZM548.831 15.453V17.1H563.978V15.453H548.831ZM547.967 20.232V21.933H564.599V20.232H547.967ZM555.23 13.374V16.533H557.228V13.374H555.23ZM559.496 16.992C559.199 17.856 558.632 19.179 558.146 20.016L559.901 20.421C560.36 19.665 560.927 18.531 561.467 17.451L559.496 16.992ZM551.423 17.424C551.936 18.369 552.395 19.611 552.53 20.421L554.393 19.908C554.204 19.098 553.718 17.883 553.151 17.019L551.423 17.424ZM551.801 28.062H561.089V30.087H551.801V28.062ZM551.801 24.741H561.089V26.739H551.801V24.741ZM549.884 23.337V31.491H563.06V23.337H549.884ZM557.417 30.951V35.568C557.417 37.458 557.903 37.998 559.847 37.998C560.252 37.998 562.115 37.998 562.52 37.998C564.113 37.998 564.626 37.269 564.815 34.245C564.302 34.137 563.492 33.813 563.087 33.516C563.033 35.919 562.925 36.243 562.304 36.243C561.899 36.243 560.414 36.243 560.117 36.243C559.469 36.243 559.361 36.135 559.361 35.541V30.951H557.417ZM552.719 30.897C552.206 33.759 550.856 35.541 546.131 36.486C546.509 36.864 547.049 37.701 547.265 38.187C552.476 36.918 554.096 34.596 554.717 30.897H552.719ZM540.11 19.935V21.852H548.021V19.935H540.11ZM543.269 13.617V31.221H545.159V13.617H543.269ZM539.597 31.842L540.326 33.867C542.702 32.733 545.834 31.275 548.75 29.844L548.291 28.035C545.105 29.493 541.784 30.978 539.597 31.842ZM568.271 15.318V17.37H592.301V15.318H568.271ZM578.666 16.938V38.133H580.799V16.938H578.666ZM579.854 23.337C583.121 25.011 587.333 27.576 589.412 29.25L590.843 27.414C588.683 25.794 584.417 23.337 581.177 21.771L579.854 23.337ZM597.026 15.075C598.565 15.831 600.374 17.073 601.238 17.991L602.453 16.398C601.562 15.507 599.726 14.346 598.187 13.644L597.026 15.075ZM595.865 22.365C597.485 23.04 599.375 24.174 600.347 25.011L601.481 23.364C600.536 22.554 598.592 21.474 596.999 20.853L595.865 22.365ZM596.432 36.756L598.268 37.809C599.348 35.325 600.617 32.004 601.535 29.196L599.888 28.116C598.889 31.14 597.431 34.65 596.432 36.756ZM602.777 19.26V21.123H611.957V19.26H602.777ZM602.237 25.281V27.171H612.308V25.281H602.237ZM606.422 30.546C608.096 32.112 610.148 34.272 611.147 35.622L612.389 34.029C611.417 32.733 609.257 30.654 607.61 29.169L606.422 30.546ZM602.966 13.914C603.83 15.534 604.613 17.694 604.829 19.071L606.557 18.477C606.341 17.127 605.504 15.021 604.586 13.428L602.966 13.914ZM613.226 16.479V32.301H615.008V16.479H613.226ZM617.762 13.428V35.649C617.762 36.108 617.6 36.216 617.168 36.243C616.709 36.27 615.278 36.27 613.685 36.216C613.955 36.783 614.252 37.674 614.36 38.214C616.439 38.214 617.789 38.16 618.572 37.809C619.355 37.485 619.652 36.918 619.652 35.649V13.428H617.762ZM606.314 20.124V25.335C606.314 28.521 605.99 33.543 601.4 36.783C601.913 37.107 602.561 37.755 602.858 38.16C607.826 34.461 608.258 29.142 608.258 25.362V20.124H606.314ZM610.094 13.347C609.689 14.913 608.825 17.181 608.15 18.585L609.662 19.152C610.418 17.802 611.309 15.696 612.065 13.914L610.094 13.347ZM632.774 35.217V37.08H645.815V35.217H632.774ZM631.856 16.047V17.856H641.765V16.047H631.856ZM633.071 13.239C631.505 16.182 628.4 19.665 623.945 22.095C624.404 22.446 625.079 23.148 625.376 23.661C630.074 20.88 633.314 17.208 635.339 13.698L633.071 13.239ZM641.09 16.047V16.398C638.282 23.499 630.803 28.791 623.81 30.816C624.242 31.248 624.755 32.085 624.998 32.625C632.342 30.249 639.956 24.822 643.196 16.668L641.846 15.939L641.468 16.047H641.09ZM628.481 20.853C630.614 22.365 633.179 24.633 634.313 26.172L635.96 24.714C634.718 23.175 632.126 21.015 629.993 19.557L628.481 20.853ZM644.816 26.685V38.214H646.895V26.685H644.816ZM633.692 26.685H633.287L631.667 28.278V38.16H633.692V28.548H645.842V26.685H633.692ZM655.724 36V17.91L656.588 18.828H651.269V17.1H657.668V36H655.724ZM662.942 31.032V29.628L672.959 17.1H675.119L665.183 29.628L664.13 29.304H679.331V31.032H662.942ZM673.607 36V31.032L673.661 29.304V24.93H675.551V36H673.607ZM684.805 36V17.91L685.669 18.828H680.35V17.1H686.749V36H684.805ZM695.668 36L703.822 17.964L704.416 18.828H692.725L693.724 17.883V22.365H691.807V17.1H705.685V18.477L697.774 36H695.668ZM709.543 20.88V22.581H733.33V20.88H709.543ZM720.316 15.696V27.252H722.341V15.696H720.316ZM729.496 13.644C725.257 14.589 717.508 15.21 711.055 15.48C711.244 15.885 711.46 16.614 711.514 17.046C718.021 16.83 725.878 16.209 730.846 15.156L729.496 13.644ZM719.398 21.393C717.103 24.066 712.648 26.631 708.841 27.846C709.3 28.251 709.867 28.98 710.137 29.439C713.998 28.035 718.507 25.2 721.045 22.176L719.398 21.393ZM723.259 21.474L721.693 22.176C724.231 25.146 728.767 27.927 732.682 29.223C733.006 28.71 733.573 27.927 734.059 27.522C730.117 26.442 725.581 24.039 723.259 21.474ZM727.498 16.371C726.985 17.613 726.013 19.422 725.23 20.583L726.931 21.177C727.741 20.097 728.794 18.45 729.658 16.992L727.498 16.371ZM713.485 17.505C714.322 18.612 715.186 20.178 715.537 21.177L717.373 20.448C717.022 19.422 716.104 17.937 715.213 16.83L713.485 17.505ZM712.999 27.765V38.214H714.97V29.358H728.173V38.106H730.225V27.765H712.999ZM713.89 31.707V33.165H729.307V31.707H713.89ZM713.89 35.649V37.269H729.307V35.649H713.89ZM720.37 28.629V36.702H722.314V28.629H720.37ZM753.148 13.32V32.139H755.065V13.32H753.148ZM744.643 24.471L745.426 26.253L759.952 20.07L759.196 18.342L744.643 24.471ZM747.559 15.858V33.894C747.559 36.837 748.477 37.566 751.582 37.566C752.257 37.566 757.495 37.566 758.224 37.566C761.059 37.566 761.707 36.378 762.031 32.652C761.464 32.544 760.681 32.22 760.195 31.896C760.006 35.001 759.736 35.73 758.143 35.73C757.063 35.73 752.527 35.73 751.636 35.73C749.827 35.73 749.503 35.406 749.503 33.921V15.858H747.559ZM758.845 18.612C758.845 23.985 758.818 27.819 758.656 28.521C758.521 29.142 758.251 29.25 757.846 29.25C757.549 29.25 756.658 29.25 756.037 29.223C756.28 29.682 756.442 30.438 756.523 30.978C757.252 30.978 758.332 30.978 759.061 30.789C759.844 30.6 760.357 30.087 760.519 29.007C760.708 27.954 760.789 23.904 760.789 18.828L760.87 18.45L759.439 17.91L759.088 18.207L758.602 18.612H758.845ZM737.11 19.827V21.744H745.696V19.827H737.11ZM740.593 13.644V31.167H742.51V13.644H740.593ZM736.867 31.869L737.677 33.867C740.08 32.841 743.131 31.464 746.02 30.087L745.588 28.278C742.375 29.655 739.054 31.059 736.867 31.869ZM765.136 36V34.623L772.993 26.928C773.713 26.226 774.253 25.614 774.613 25.092C774.973 24.552 775.216 24.048 775.342 23.58C775.468 23.112 775.531 22.671 775.531 22.257C775.531 21.159 775.153 20.295 774.397 19.665C773.659 19.035 772.561 18.72 771.103 18.72C769.987 18.72 768.997 18.891 768.133 19.233C767.287 19.575 766.558 20.106 765.946 20.826L764.569 19.638C765.307 18.774 766.252 18.108 767.404 17.64C768.556 17.172 769.843 16.938 771.265 16.938C772.543 16.938 773.65 17.145 774.586 17.559C775.522 17.955 776.242 18.54 776.746 19.314C777.268 20.088 777.529 20.997 777.529 22.041C777.529 22.653 777.439 23.256 777.259 23.85C777.097 24.444 776.791 25.074 776.341 25.74C775.909 26.388 775.27 27.126 774.424 27.954L767.215 35.028L766.675 34.272H778.393V36H765.136Z" fill="#002F8C"/>
<path d="M880 15L888.66 27.75H871.34L880 15Z" fill="#96C9E5"/>
<path d="M847.241 35.3086C848.014 34.5408 849.254 34.5408 850.027 35.3086L855.136 39.4328H855.225C856.258 40.4776 856.258 42.1716 855.225 43.2164C854.191 44.2612 852.515 44.2612 851.481 43.2164L847.241 38.3569L847.081 38.1754C846.781 37.796 846.615 37.323 846.615 36.8327C846.615 36.2608 846.841 35.7123 847.241 35.3086ZM833.155 4C837.705 4 842.069 5.82687 845.286 9.07873C848.503 12.3306 850.311 16.741 850.311 21.3399C850.311 30.9164 842.63 38.6797 833.155 38.6797C823.681 38.6797 816 30.9164 816 21.3399C816 11.7633 823.681 4 833.155 4Z" fill="#002F8C"/>
</svg>
