<svg width="696" height="111" viewBox="0 0 696 111" fill="none" xmlns="http://www.w3.org/2000/svg">
<path d="M216.482 57.7V61.15H243.732V57.7H216.482ZM221.382 45.4V48.85H241.982V45.4H221.382ZM228.482 36.05V82H232.132V36.05H228.482ZM227.082 59.3C224.332 66.2 219.032 73.2 213.632 76.65C214.482 77.3 215.632 78.6 216.232 79.55C221.732 75.5 227.082 68.05 230.032 60.25L227.082 59.3ZM233.682 59.55L230.932 60.45C233.482 67.5 237.982 75.1 242.382 79.15C243.032 78.15 244.282 76.85 245.132 76.2C240.682 72.75 236.082 65.95 233.682 59.55ZM221.032 38.35C220.132 44.45 218.532 50.45 215.882 54.35C216.782 54.75 218.282 55.7 218.932 56.25C221.582 52 223.482 45.65 224.482 38.95L221.032 38.35ZM198.882 45.7V49.15H216.182V45.7H198.882ZM206.082 36V81.95H209.732V36H206.082ZM206.032 47.95C204.532 55.05 201.182 63.75 197.732 68.2C198.432 69.1 199.332 70.75 199.782 71.8C203.282 66.75 206.732 56.85 208.282 48.75L206.032 47.95ZM209.582 50.6L207.782 52.05C209.082 54.15 212.582 60.55 213.682 63.15L215.932 60.45C215.032 58.9 210.732 52.1 209.582 50.6ZM281.632 38.5C284.232 40.3 287.282 43 288.782 44.8L291.432 42.45C289.882 40.7 286.732 38.1 284.132 36.35L281.632 38.5ZM248.932 45.35V49H293.482V45.35H248.932ZM250.632 56.5V60.15H272.732V56.5H250.632ZM259.632 58.45V76.3H263.382V58.45H259.632ZM249.132 76.8L250.282 80.55C256.732 79.1 265.882 77 274.432 75L274.132 71.65C264.882 73.65 255.082 75.65 249.132 76.8ZM274.382 36.25C274.582 60.45 278.632 82.1 288.582 82.1C292.432 82.1 293.882 79.55 294.532 70.8C293.482 70.45 292.032 69.6 291.182 68.75C290.882 75.45 290.282 78.2 288.882 78.2C282.732 78.2 278.232 59.45 278.382 36.25H274.382ZM301.032 76.55L301.532 80.25C310.382 79.95 323.932 79.35 336.532 78.7L336.682 75.25C323.682 75.85 309.732 76.35 301.032 76.55ZM300.582 61.1V64.65H342.032V61.1H300.582ZM309.132 51.55V55.05H333.032V51.55H309.132ZM314.282 63.35C312.782 67.75 309.832 73.95 307.482 77.85L310.832 78.95C313.282 75.2 316.182 69.35 318.482 64.55L314.282 63.35ZM326.182 68.65C330.632 72.65 335.582 78.4 337.832 82.15L341.232 80.1C338.882 76.3 333.982 70.9 329.382 66.95L326.182 68.65ZM320.982 39.7C325.632 46.2 334.432 52.9 342.232 56.65C342.882 55.55 343.782 54.2 344.682 53.3C336.732 50.05 327.982 43.5 322.682 36.1H318.832C314.932 42.5 306.582 49.75 297.982 53.85C298.782 54.65 299.732 56 300.182 56.9C308.682 52.65 316.882 45.8 320.982 39.7ZM366.432 76.9V80.6H394.682V76.9H366.432ZM368.382 52.4V56H393.632V52.4H368.382ZM379.132 36.4V78.7H382.932V36.4H379.132ZM348.932 45.4V48.85H365.532V45.4H348.932ZM356.832 60.4V82.05H360.532V55.95L356.832 60.4ZM356.832 36.05V47.1H360.532V36.05H356.832ZM360.232 56.95L358.082 58.85C360.132 60.65 365.032 65.4 366.882 67.55L369.182 64.5C367.732 63.25 361.932 58.15 360.232 56.95ZM364.132 45.4V46.2C361.132 53.8 353.982 61.4 347.182 65.4C347.832 66.05 348.732 67.8 349.132 68.75C356.282 64.15 363.932 55.85 367.732 46.65L365.582 45.25L364.882 45.4H364.132ZM404.982 39.4V81.45H408.832V43.2H433.782V81.25H437.732V39.4H404.982ZM407.532 56.75V60.45H435.432V56.75H407.532ZM407.482 74.45V78.2H435.532V74.45H407.482ZM449.382 46.55V50.35H493.032V46.55H449.382ZM459.382 68.85V72.65H482.682V68.85H459.382ZM469.132 36.05V82H473.082V36.05H469.132ZM467.982 47.8C463.982 57.4 456.032 66.7 447.682 71.05C448.532 71.8 449.782 73.2 450.382 74.15C459.032 69.1 466.882 59.55 471.332 48.95L467.982 47.8ZM474.332 47.95L470.982 49.1C475.382 59.6 483.082 69.15 491.932 74.05C492.532 73 493.832 71.5 494.782 70.7C486.132 66.55 478.282 57.45 474.332 47.95ZM536.132 44.6L533.632 42.65C532.832 42.9 531.482 43.05 529.882 43.05C527.982 43.05 512.532 43.05 510.582 43.05C509.032 43.05 506.182 42.85 505.532 42.75V47.25C506.082 47.2 508.782 47 510.582 47C512.282 47 528.282 47 530.082 47C528.782 51.15 525.132 57.1 521.732 60.95C516.582 66.65 509.232 72.65 501.132 75.75L504.332 79.1C512.232 75.5 519.382 69.55 524.982 63.3C529.132 58.7 532.932 51.7 534.932 46.75C535.182 46.1 535.832 45 536.132 44.6ZM525.632 60.7L522.782 63.5C528.182 68.25 534.032 74.65 537.632 79.4L541.082 76.35C537.682 72.2 531.032 65.2 525.632 60.7ZM556.882 41.05V45.2C558.182 45.1 559.832 45 561.482 45C564.332 45 578.882 45 581.682 45C583.082 45 584.832 45.1 586.332 45.2V41.05C584.882 41.2 583.082 41.3 581.682 41.3C578.882 41.3 564.332 41.3 561.432 41.3C559.782 41.3 558.332 41.2 556.882 41.05ZM550.932 53.6V57.75C552.282 57.65 553.782 57.6 555.282 57.6C558.182 57.6 585.332 57.6 587.982 57.6C589.232 57.6 590.782 57.65 591.932 57.7V53.6C590.682 53.75 589.032 53.8 587.982 53.8C585.332 53.8 558.182 53.8 555.282 53.8C553.732 53.8 552.282 53.75 550.932 53.6ZM574.482 55.6L570.282 55.65C570.232 61.15 569.832 66.05 567.332 70C565.382 73.2 561.782 76.05 557.932 77.7L561.632 80.4C565.832 78.2 569.632 74.65 571.432 71.3C573.682 67.1 574.482 61.9 574.482 55.6ZM601.232 56.35V61.25C602.832 61.15 605.482 61.05 608.232 61.05C611.932 61.05 631.882 61.05 635.682 61.05C637.882 61.05 639.982 61.2 641.032 61.25V56.35C639.882 56.45 638.132 56.65 635.632 56.65C631.932 56.65 611.882 56.65 608.232 56.65C605.382 56.65 602.782 56.5 601.232 56.35ZM681.005 40.7L678.205 41.9C679.855 44.15 681.555 47.15 682.805 49.8L685.655 48.5C684.505 46.1 682.255 42.55 681.005 40.7ZM687.505 38.3L684.755 39.55C686.405 41.75 688.155 44.65 689.455 47.25L692.305 45.95C691.105 43.65 688.855 40.05 687.505 38.3ZM659.605 39.95L657.355 43.35C660.305 45 665.755 48.65 668.105 50.45L670.505 47.05C668.305 45.45 662.555 41.6 659.605 39.95ZM652.105 75.7L654.455 79.8C659.055 78.85 665.955 76.5 671.005 73.55C679.005 68.9 685.905 62.4 690.255 55.7L687.805 51.6C683.755 58.65 677.205 65.15 668.905 69.9C663.805 72.8 657.605 74.75 652.105 75.7ZM652.105 51.2L649.855 54.65C652.905 56.2 658.305 59.7 660.755 61.45L663.055 57.95C660.905 56.4 655.055 52.8 652.105 51.2Z" fill="#002F8C"/>
<path fill-rule="evenodd" clip-rule="evenodd" d="M102.258 1.41868V2.83737H105.104H107.949V10.1335V17.4295H105.104H102.258V16.2188V15.0085L88.7579 14.9014L75.2574 14.7948L72.4101 9.82134L69.5627 4.84744L61.6642 4.95729L53.7656 5.06673L35.9423 38.0718C26.1394 56.2245 18.1189 71.136 18.1189 71.2082C18.1189 71.2803 19.8395 71.3395 21.9426 71.3395H25.7663L41.7508 41.7328C55.6236 16.0376 57.8035 12.2181 58.249 12.8261C58.5319 13.2116 66.1004 26.3981 75.0688 42.1292C84.0372 57.8604 91.5016 70.8693 91.6569 71.0379C91.8117 71.2066 106.956 71.2978 125.311 71.2406L158.684 71.1369L142.713 43.1685L126.743 15.2002L119.785 15.0891L112.827 14.9785V7.48903V0H107.543H102.258V1.41868ZM124.831 42.9659L137.619 65.4621L136.157 65.5902C135.353 65.6607 134.655 65.6607 134.607 65.5902C134.086 64.8318 109.516 21.3966 109.323 20.8932C109.101 20.3184 109.294 20.2316 110.552 20.3407L112.043 20.4696L124.831 42.9659ZM134.887 42.5605C141.803 54.7105 147.558 64.8918 147.676 65.1857C147.836 65.5833 147.502 65.6871 146.371 65.591L144.851 65.4621L132.091 43.0425C125.072 30.7117 119.33 20.532 119.33 20.4205C119.33 20.3091 120.001 20.2746 120.821 20.3439L122.312 20.4696L134.887 42.5605ZM93.0153 41.2472C99.4453 52.559 105.256 62.7719 105.929 63.9421L107.152 66.0701H105.604H104.056L92.4873 45.7307C86.1244 34.5437 80.3135 24.3292 79.5741 23.0317L78.2295 20.6722L79.7774 20.6763L81.3252 20.68L93.0153 41.2472ZM104.5 43.3712L117.295 65.8675L115.833 65.9955C115.029 66.0661 114.329 66.0661 114.278 65.9955C114.227 65.925 108.404 55.6886 101.339 43.248L88.4925 20.6285L90.0993 20.7517L91.7061 20.8749L104.5 43.3712ZM114.664 43.1685L127.346 65.4621L125.939 65.5902C125.166 65.6607 124.477 65.6607 124.408 65.5902C124.14 65.3142 99.0067 21.0302 99.0067 20.8332C99.0067 20.7176 99.6761 20.6799 100.494 20.7493L101.982 20.8749L114.664 43.1685ZM45.759 51.478V56.342H50.6366H55.5143V51.478V46.6139H50.6366H45.759V51.478ZM59.579 51.478V56.342H64.4566H69.3343V51.478V46.6139H64.4566H59.579V51.478ZM45.759 65.6648V70.5288H50.6366H55.5143V65.6648V60.8007H50.6366H45.759V65.6648ZM59.579 65.6648V70.5288H64.4566H69.3343V65.6648V60.8007H64.4566H59.579V65.6648ZM162.823 77.7864C157.569 79.3012 148.423 82.0145 142.499 83.8154C101.763 96.2005 92.245 97.3424 76.1842 91.7694C72.1329 90.3633 69.3571 89.1529 56.8816 83.3501C45.6005 78.1034 40.2253 76.8659 28.6872 76.8598C23.4974 76.857 18.9006 77.1261 13.851 77.7293C9.82693 78.21 4.88831 78.7345 2.87628 78.8954C-2.53223 79.3275 -0.0584446 79.7612 8.1604 79.8216C17.7239 79.8922 26.7906 80.4989 30.3586 81.3076C33.4364 82.0048 42.1731 85.3375 46.1654 87.3374C51.0228 89.7707 56.8032 93.6424 63.6295 99.0343C70.9289 104.8 77.706 108.618 83.1543 110.036C86.7703 110.978 95.0798 111.313 98.7173 110.665C106.137 109.342 118.879 103.674 142.296 91.2801C146.32 89.1501 155.008 84.6148 161.603 81.2014C168.198 77.7876 173.32 75.0034 172.984 75.0135C172.649 75.0236 168.076 76.2713 162.823 77.7864ZM165.228 78.3875C165.135 78.4739 159.479 81.1426 152.661 84.3176C120.238 99.4149 108.866 103.587 97.4942 104.559C91.7699 105.048 87.0516 104.551 82.2776 102.956C76.4232 101 72.9616 99.1101 58.5628 90.007C48.0385 83.3529 43.3949 81.55 32.9551 80.0644C30.033 79.6485 29.681 79.5338 31.2069 79.4949C34.6192 79.4082 42.2308 80.6206 45.7639 81.8139C50.0285 83.2544 55.0021 85.7234 63.4405 90.5894C76.2732 97.9897 80.2346 99.5097 88.2893 100.123C98.5059 100.9 104.22 99.9078 119.533 94.6943C127.538 91.9692 164.102 78.711 164.381 78.4325C164.493 78.3211 164.767 78.2303 164.99 78.2303C165.214 78.2303 165.321 78.3012 165.228 78.3875Z" fill="#5D93FF"/>
<path fill-rule="evenodd" clip-rule="evenodd" d="M102.057 1.41868V2.83737H104.902H107.747V10.1335V17.4295H104.902H102.057V16.2188V15.0085L88.5562 14.9014L75.0557 14.7948L72.2128 9.82945L69.3704 4.86406H61.732C57.5307 4.86406 54.0932 4.97796 54.0932 5.11658C54.0932 5.25562 54.9163 6.72132 55.9223 8.37388C56.9283 10.026 57.7514 11.5461 57.7514 11.7512C57.7514 12.1176 90.9073 70.4385 91.4564 71.0379C91.6109 71.2066 106.755 71.2978 125.109 71.2406L158.482 71.1369L142.512 43.1685L126.541 15.2002L119.583 15.0891L112.625 14.9785V7.48903V0H107.341H102.057V1.41868ZM124.63 42.9659L137.418 65.4621L135.955 65.5902C135.151 65.6607 134.453 65.6607 134.405 65.5902C133.885 64.8318 109.314 21.3966 109.121 20.8932C108.9 20.3184 109.093 20.2316 110.35 20.3407L111.842 20.4696L124.63 42.9659ZM134.685 42.5605C141.601 54.7105 147.357 64.8918 147.475 65.1857C147.635 65.5833 147.3 65.6871 146.169 65.591L144.649 65.4621L131.889 43.0425C124.871 30.7117 119.129 20.532 119.129 20.4205C119.129 20.3091 119.8 20.2746 120.619 20.3439L122.11 20.4696L134.685 42.5605ZM92.8136 41.2472C99.2436 52.559 105.054 62.7719 105.728 63.9421L106.951 66.0701H105.402H103.854L92.2856 45.7307C85.9227 34.5437 80.1118 24.3292 79.3724 23.0317L78.0278 20.6722L79.5757 20.6763L81.1235 20.68L92.8136 41.2472ZM104.298 43.3712L117.093 65.8675L115.631 65.9955C114.827 66.0661 114.127 66.0661 114.076 65.9955C114.025 65.925 108.202 55.6886 101.137 43.248L88.2908 20.6285L89.8976 20.7517L91.5044 20.8749L104.298 43.3712ZM114.462 43.1685L127.145 65.4621L125.738 65.5902C124.964 65.6607 124.275 65.6607 124.207 65.5902C123.938 65.3142 98.805 21.0302 98.805 20.8332C98.805 20.7176 99.4745 20.6799 100.293 20.7493L101.78 20.8749L114.462 43.1685ZM45.5573 51.478V56.342H50.4349H55.3126V51.478V46.6139H50.4349H45.5573V51.478ZM45.5573 65.6648V70.5288H50.4349H55.3126V65.6648V60.8007H50.4349H45.5573V65.6648ZM59.3773 65.6648V70.5288H64.255H69.1326V65.6648V60.8007H64.255H59.3773V65.6648ZM171.36 75.6171C170.689 75.9348 166.117 78.0418 161.198 80.2995C156.28 82.5573 148.559 86.1137 144.041 88.2024C114.369 101.92 101.042 105.891 89.1818 104.546C81.1999 103.642 76.1898 101.279 58.3611 90.007C47.5689 83.1835 42.1954 81.184 31.1276 79.8711C27.1299 79.3972 -1.53239 79.0515 0.0642311 79.4965C0.605651 79.6473 4.15821 79.7937 7.95871 79.8216C17.5222 79.8922 26.5889 80.4989 30.1569 81.3076C33.2347 82.0048 41.9714 85.3375 45.9638 87.3374C50.8211 89.7707 56.6015 93.6424 63.4278 99.0343C70.7272 104.8 77.5043 108.618 82.9526 110.036C86.5686 110.978 94.8781 111.313 98.5156 110.665C105.935 109.342 118.678 103.674 142.094 91.2801C146.118 89.1501 154.807 84.6148 161.402 81.2014C167.997 77.7876 173.21 75.005 172.986 75.0172C172.762 75.0293 172.031 75.2993 171.36 75.6171Z" fill="#002F8C"/>
</svg>
