<svg width="74" height="23" viewBox="0 0 74 23" fill="none" xmlns="http://www.w3.org/2000/svg">
<rect width="73.912" height="21.5206" transform="translate(0 1)" fill="#E83535"/>
<path d="M13.1 19V5H14.74L24 16.5H23.14V5H25.14V19H23.5L14.24 7.5H15.1V19H13.1ZM31.1505 11.04H38.3505V12.74H31.1505V11.04ZM31.3305 17.26H39.4905V19H29.3305V5H39.2105V6.74H31.3305V17.26ZM45.7536 19L41.0736 5H43.1336L47.4336 17.92H46.3936L50.8536 5H52.6936L57.0536 17.92H56.0536L60.4136 5H62.3136L57.6336 19H55.5336L51.4536 7.02H51.9936L47.8936 19H45.7536Z" fill="white"/>
</svg>
